<svg xmlns="http://www.w3.org/2000/svg" viewBox="0 0 480.001 480.001"><path d="M445.993 324.533l.952-.488 1-.568c.8-.464 1.6-.912 2.56-1.496a64.36 64.36 0 0029.408-52.4c.064-.531.093-1.065.088-1.6-.039-32.432-24.3-59.722-56.504-63.56-3.821-27.732-27.502-48.403-55.496-48.44-1.152 0-2.296 0-3.424.096-13.958-54.672-62.17-93.684-118.552-95.928-4.152-.176-8.08-.168-12.32 0-56.303 2.376-104.385 41.393-118.304 96-27.463 2.084-50.546 21.434-57.392 48.112C25.147 207.389.038 234.97.001 267.981c-.005.535.024 1.069.088 1.6.622 25.665 16.506 48.479 40.36 57.968-3.351 20.941 10.91 40.634 31.851 43.984 2.545.407 5.125.557 7.701.448h160c.026 26.499 21.501 47.974 48 48h136c22.091-.026 39.979-17.956 39.952-40.048a39.999 39.999 0 00-25.856-37.368 46.782 46.782 0 00-5.912-12.744 67.718 67.718 0 008.632-2.808 55.08 55.08 0 005.176-2.48zm-203.192 31.448h-162.8c-13.255 0-24-10.745-24-24s10.745-24 24-24c2.07.017 4.131.285 6.136.8a8 8 0 009.864-8.872c.04-13.227 10.773-23.928 24-23.928 2.096-.009 4.183.26 6.208.8a8.001 8.001 0 0010.08-6.96c3.349-35.187 34.589-60.997 69.776-57.648 32.885 3.13 57.985 30.774 57.936 63.808v1.04a8 8 0 0010.168 7.704c1.9-.519 3.863-.77 5.832-.744 13.255 0 24 10.745 24 24 0 .36-.072.696-.096 1.048a55.514 55.514 0 00-10.616 15.248 46.952 46.952 0 00-5.288-.296c-20.322.023-38.427 12.841-45.2 32zm205.2 24c0 13.255-10.745 24-24 24h-136c-17.673.014-32.011-14.302-32.025-31.975-.014-17.673 14.302-32.011 31.975-32.025a32.031 32.031 0 018.299 1.088 8 8 0 009.696-5.296c6.737-21.039 29.254-32.633 50.293-25.896a40.004 40.004 0 0118.723 12.72 8 8 0 008.312 2.608c17.086-4.77 34.804 5.215 39.573 22.301.255.914.469 1.838.643 2.771a8 8 0 006.024 6.4 23.922 23.922 0 0118.487 23.304zm-9.248-69.72a40.514 40.514 0 01-4 1.928 50.23 50.23 0 01-10.28 3.024 27.94 27.94 0 01-3.088.448c-.313 0-.626.024-.936.072-.8.096-1.536.088-2.304.128a47.748 47.748 0 00-34.256-7.2c-17.11-17.426-43.568-21.693-65.288-10.528-4.49-17.674-20.365-30.075-38.6-30.152h-.4c-4.387-43.964-43.583-76.049-87.548-71.662-34.9 3.482-63.463 29.292-70.452 63.662-19.575-.682-36.798 12.827-40.8 32a40.266 40.266 0 00-35.368 20.28 47.92 47.92 0 01-29.352-43.48 8.294 8.294 0 00-.08-1.032c.237-26.619 22.009-48.006 48.628-47.768h.012a8 8 0 007.92-6.88c3.447-23.564 23.625-41.054 47.44-41.12.317-.016.635-.016.952 0a8 8 0 008.848-6.528c10.046-50.362 53.286-87.285 104.6-89.32a127.27 127.27 0 0110.912 0c51.746 1.908 95.315 39.308 105.04 90.168a8 8 0 009.496 6.48 40.726 40.726 0 018.152-.8c22.08.026 39.974 17.92 40 40a8 8 0 008 8c26.406.039 47.837 21.37 48 47.776a8.482 8.482 0 00-.08 1.264 48.162 48.162 0 01-21.96 39.432c-.608.376-1.224.712-1.856 1.072l-1.352.736z" fill="#8f8f8f"/></svg>